<svg width="28" height="25" viewBox="0 0 28 25" fill="none" xmlns="http://www.w3.org/2000/svg">
<path d="M25.714 10.286H25.741C26.206 10.286 26.626 10.478 26.926 10.788C27.236 11.089 27.428 11.509 27.428 11.974V12.002V12.001V12.028C27.428 12.493 27.236 12.913 26.926 13.213C26.625 13.523 26.205 13.715 25.74 13.715H25.712H25.713H25.512L23.971 22.584C23.9058 22.9826 23.697 23.3436 23.384 23.599L23.381 23.601C23.091 23.85 22.711 24.002 22.296 24.002H5.12902C4.71403 24.002 4.33402 23.85 4.04202 23.599L4.04402 23.601C3.73207 23.3476 3.52305 22.9893 3.45602 22.593L3.45502 22.583L1.91402 13.714H1.68602C1.22102 13.714 0.801025 13.522 0.501025 13.212C0.341972 13.0581 0.215546 12.8738 0.129296 12.6701C0.0430464 12.4663 -0.00125916 12.2472 -0.000975206 12.026V11.972C-0.000975206 11.507 0.191025 11.087 0.501025 10.787C0.802025 10.477 1.22202 10.285 1.68702 10.285H1.71502H1.71402L25.714 10.286ZM6.49102 21C6.60323 20.9923 6.71267 20.9618 6.8126 20.9102C6.91253 20.8586 7.00082 20.787 7.07202 20.7L7.07302 20.699C7.14899 20.6146 7.20669 20.5155 7.24249 20.4077C7.27828 20.3 7.2914 20.186 7.28102 20.073V20.076L6.85203 14.504C6.84437 14.3918 6.8138 14.2823 6.7622 14.1824C6.7106 14.0825 6.63907 13.9942 6.55202 13.923L6.55102 13.922C6.46667 13.846 6.36751 13.7883 6.25978 13.7525C6.15204 13.7167 6.03807 13.7036 5.92502 13.714H5.92802C5.81582 13.7216 5.70638 13.7522 5.60645 13.8038C5.50652 13.8554 5.41823 13.9269 5.34702 14.014L5.34602 14.015C5.27005 14.0993 5.21236 14.1985 5.17656 14.3062C5.14077 14.414 5.12765 14.5279 5.13802 14.641V14.638L5.56702 20.21C5.5813 20.4259 5.67967 20.6277 5.84102 20.772L5.84202 20.773C5.9964 20.9195 6.20118 21.0011 6.41402 21.001H6.42502H6.42402L6.49102 21ZM11.996 20.144V14.564C11.9963 14.4529 11.974 14.3429 11.9303 14.2408C11.8866 14.1386 11.8226 14.0465 11.742 13.97C11.6653 13.8895 11.5729 13.8255 11.4706 13.7818C11.3683 13.7382 11.2582 13.7158 11.147 13.716H11.131C11.0199 13.7157 10.91 13.738 10.8078 13.7817C10.7057 13.8254 10.6135 13.8894 10.537 13.97C10.4565 14.0467 10.3925 14.1391 10.3489 14.2414C10.3052 14.3437 10.2828 14.4538 10.283 14.565V20.153C10.283 20.387 10.38 20.598 10.537 20.747C10.6138 20.8275 10.7061 20.8915 10.8084 20.9351C10.9107 20.9788 11.0208 21.0012 11.132 21.001H11.148C11.2591 21.0013 11.3691 20.9789 11.4712 20.9353C11.5734 20.8916 11.6655 20.8275 11.742 20.747C11.8236 20.6702 11.8886 20.5775 11.9329 20.4747C11.9773 20.3718 12.0001 20.261 12 20.149V20.143L11.996 20.144ZM17.139 20.144V14.564C17.1393 14.4529 17.117 14.3429 17.0733 14.2408C17.0296 14.1386 16.9656 14.0465 16.885 13.97C16.8083 13.8895 16.7159 13.8255 16.6136 13.7818C16.5113 13.7382 16.4012 13.7158 16.29 13.716H16.274C16.1629 13.7157 16.053 13.738 15.9508 13.7817C15.8487 13.8254 15.7565 13.8894 15.68 13.97C15.5996 14.0467 15.5355 14.1391 15.4919 14.2414C15.4482 14.3437 15.4258 14.4538 15.426 14.565V20.153C15.426 20.387 15.523 20.598 15.68 20.747C15.7568 20.8275 15.8491 20.8915 15.9514 20.9351C16.0537 20.9788 16.1638 21.0012 16.275 21.001H16.291C16.4021 21.0013 16.5121 20.9789 16.6142 20.9353C16.7164 20.8916 16.8085 20.8275 16.885 20.747C16.9666 20.6702 17.0316 20.5775 17.0759 20.4747C17.1203 20.3718 17.1431 20.261 17.143 20.149V20.143L17.139 20.144ZM21.853 20.21L22.282 14.638C22.2917 14.5253 22.2782 14.4118 22.2425 14.3045C22.2067 14.1972 22.1494 14.0983 22.074 14.014L22.075 14.015C22.004 13.9278 21.9159 13.8561 21.8162 13.8041C21.7165 13.7522 21.6072 13.7212 21.495 13.713H21.492C21.3793 13.7033 21.2658 13.7168 21.1585 13.7525C21.0512 13.7883 20.9524 13.8456 20.868 13.921L20.869 13.92C20.7819 13.991 20.7101 14.0791 20.6582 14.1788C20.6063 14.2786 20.5752 14.3878 20.567 14.5V14.503L20.138 20.075C20.1283 20.1877 20.1418 20.3012 20.1776 20.4085C20.2133 20.5158 20.2707 20.6146 20.346 20.699L20.345 20.698C20.4161 20.7851 20.5041 20.8569 20.6039 20.9088C20.7036 20.9607 20.8129 20.9918 20.925 21H21.005C21.2181 21 21.4232 20.9184 21.578 20.772C21.7414 20.6279 21.8417 20.4253 21.857 20.208V20.205L21.853 20.21ZM6.37502 3.90998L5.13002 9.42798H3.36202L4.71403 3.52198C4.87703 2.73698 5.30402 2.07198 5.89602 1.60698L5.90302 1.60198C6.49879 1.11885 7.24299 0.856066 8.01003 0.857978H8.04803H8.04602H10.282V0.849978C10.282 0.615978 10.379 0.404978 10.536 0.255978C10.6129 0.175245 10.7053 0.111002 10.8078 0.0671621C10.9103 0.023322 11.0206 0.000803154 11.132 0.000977568H16.294C16.528 0.000977568 16.739 0.0979775 16.888 0.254978C16.9685 0.331745 17.0325 0.424081 17.0762 0.526369C17.1198 0.628658 17.1423 0.738759 17.142 0.849978V0.857978H19.415C20.216 0.857978 20.951 1.13798 21.527 1.60598L21.521 1.60098C22.1276 2.0744 22.5474 2.74702 22.706 3.49998L22.71 3.52098L24.062 9.42698H22.294L21.049 3.90898C20.9585 3.53031 20.7455 3.19213 20.443 2.94698L20.44 2.94398C20.1457 2.70092 19.7757 2.56828 19.394 2.56898H17.139V2.57698C17.1393 2.68806 17.117 2.79804 17.0733 2.90018C17.0296 3.00232 16.9656 3.09447 16.885 3.17098C16.8083 3.25145 16.7159 3.31547 16.6136 3.35914C16.5113 3.4028 16.4012 3.4252 16.29 3.42498H11.132C11.0209 3.4253 10.911 3.40294 10.8088 3.35926C10.7067 3.31559 10.6145 3.25152 10.538 3.17098C10.4576 3.09421 10.3935 3.00187 10.3499 2.89959C10.3062 2.7973 10.2838 2.6872 10.284 2.57598V2.56798H8.02903C7.64641 2.56755 7.27569 2.70091 6.98102 2.94498L6.98403 2.94298C6.68375 3.18616 6.47185 3.52141 6.38102 3.89698L6.37902 3.90898L6.37502 3.90998Z" fill="black"/>
</svg>
