<svg width="25" height="23" viewBox="0 0 25 23" fill="none" xmlns="http://www.w3.org/2000/svg">
<path d="M24.4816 11.3154L13.8264 0.941554L13.1122 0.245848C12.9495 0.0883782 12.7294 0 12.5 0C12.2707 0 12.0506 0.0883782 11.8879 0.245848L0.518532 11.3154C0.351787 11.4772 0.220005 11.6699 0.130966 11.8821C0.0419262 12.0943 -0.00256625 12.3217 0.000114299 12.551C0.0111445 13.4965 0.819104 14.2513 1.78976 14.2513H2.96171V23H22.0384V14.2513H23.2352C23.7067 14.2513 24.1507 14.0713 24.4843 13.7463C24.6486 13.5868 24.7788 13.3971 24.8673 13.1882C24.9558 12.9794 25.0009 12.7555 25 12.5295C25 12.0729 24.8152 11.6404 24.4816 11.3154ZM14.0443 21.066H10.9558V15.5863H14.0443V21.066ZM20.053 12.3173V21.066H15.8091V14.9416C15.8091 14.348 15.3155 13.8672 14.7061 13.8672H10.294C9.6846 13.8672 9.191 14.348 9.191 14.9416V21.066H4.94714V12.3173H2.2999L12.5028 2.38669L13.1398 3.00718L22.703 12.3173H20.053Z" fill="#8E8E8E"/>
</svg>
