<svg width="86" height="25" viewBox="0 0 86 25" fill="none" xmlns="http://www.w3.org/2000/svg">
<path d="M27.1229 19.3158V5.70778H31.721C32.7885 5.70778 33.6612 5.90047 34.3389 6.28586C35.0211 6.66681 35.5261 7.18287 35.8539 7.83403C36.1817 8.4852 36.3456 9.21167 36.3456 10.0134C36.3456 10.8152 36.1817 11.5439 35.8539 12.1995C35.5305 12.8551 35.0299 13.3778 34.3522 13.7676C33.6745 14.153 32.8062 14.3457 31.7475 14.3457H28.4519V12.8839H31.6944C32.4253 12.8839 33.0122 12.7576 33.4552 12.5051C33.8982 12.2527 34.2193 11.9116 34.4186 11.4819C34.6224 11.0478 34.7243 10.5583 34.7243 10.0134C34.7243 9.46859 34.6224 8.98133 34.4186 8.55164C34.2193 8.12196 33.8959 7.78531 33.4485 7.54168C33.0011 7.29361 32.4076 7.16958 31.6678 7.16958H28.7708V19.3158H27.1229ZM39.0001 19.3158V5.70778H47.2127V7.16958H40.6479V11.7676H46.7875V13.2294H40.6479V17.854H47.319V19.3158H39.0001ZM49.4386 7.16958V5.70778H59.6446V7.16958H55.3656V19.3158H53.7177V7.16958H49.4386ZM62.1878 19.3158V5.70778H63.8357V17.854H70.1613V19.3158H62.1878ZM70.9038 5.70778H72.7908L76.5649 12.06H76.7244L80.4985 5.70778H82.3856L77.4686 13.7078V19.3158H75.8208V13.7078L70.9038 5.70778Z" fill="black"/>
<path d="M12.7375 10.7365C14.1662 10.7365 15.3655 11.6865 15.7044 12.971C16.1303 14.5815 16.0727 16.3465 17.9451 17.263C19.6071 17.818 20.2359 18.5155 20.2359 20.3855C20.2359 21.878 18.9346 23.4645 17.2568 23.6625C15.3808 23.939 13.9206 23.5775 12.737 22.9155C11.5534 23.5775 10.0927 23.9395 8.21926 23.6625C6.54045 23.4645 5.2397 21.8725 5.2397 20.3855C5.2397 18.5555 5.91071 17.781 7.56965 17.2505C9.61122 16.227 9.33711 14.433 9.7926 12.892C9.97986 12.2685 10.3681 11.7214 10.8991 11.3327C11.43 10.9441 12.0751 10.7349 12.7375 10.7365ZM22.0904 9.62452C21.5845 9.19302 19.5195 10.8775 18.8699 11.7105C18.475 12.155 18.2294 12.766 18.2294 13.44C18.2294 14.7955 19.2179 15.8945 20.4341 15.8945C21.3593 15.8945 22.1511 15.263 22.4787 14.365C23.1151 12.75 23.1502 10.5275 22.0904 9.62452ZM3.38358 9.62452C2.32535 10.5275 2.35948 12.75 2.99687 14.365C3.32448 15.263 4.11574 15.8945 5.04048 15.8945C6.25768 15.8945 7.2451 14.7955 7.2451 13.44C7.2451 12.766 7.00002 12.155 6.60516 11.7105C5.95504 10.8775 3.89054 9.19302 3.38358 9.62452ZM15.4557 0.771022C20.5956 1.62702 20.2348 10.122 16.1196 9.43752C14.9325 9.23952 14.051 8.17852 13.917 6.91102C13.781 5.62202 13.4748 0.442022 15.4557 0.771022ZM10.0193 0.771022C12.0008 0.441522 11.6941 5.62152 11.558 6.91052C11.424 8.17852 10.5436 9.23902 9.35647 9.43702C5.24021 10.1225 4.87999 1.62702 10.0193 0.771022Z" fill="black"/>
</svg>
