<svg width="128" height="38" viewBox="0 0 128 38" fill="none" xmlns="http://www.w3.org/2000/svg">
<path d="M40.4388 29V8.86014H47.2439C48.8239 8.86014 50.1154 9.14532 51.1184 9.71569C52.1281 10.2795 52.8754 11.0433 53.3606 12.007C53.8457 12.9707 54.0883 14.0459 54.0883 15.2325C54.0883 16.4191 53.8457 17.4976 53.3606 18.4679C52.882 19.4382 52.1412 20.2118 51.1381 20.7887C50.1351 21.359 48.8501 21.6442 47.2832 21.6442H42.4056V19.4808H47.2045C48.2863 19.4808 49.1549 19.2939 49.8105 18.9202C50.4661 18.5465 50.9414 18.0417 51.2365 17.4058C51.538 16.7633 51.6888 16.0389 51.6888 15.2325C51.6888 14.4261 51.538 13.705 51.2365 13.0691C50.9414 12.4331 50.4628 11.9349 49.8007 11.5743C49.1385 11.2072 48.2601 11.0236 47.1652 11.0236H42.8776V29H40.4388ZM58.0169 29V8.86014H70.1717V11.0236H60.4557V17.8287H69.5423V19.9921H60.4557V26.8365H70.329V29H58.0169ZM73.466 11.0236V8.86014H88.5709V11.0236H82.2379V29H79.7991V11.0236H73.466ZM92.3348 29V8.86014H94.7737V26.8365H104.136V29H92.3348ZM105.234 8.86014H108.027L113.613 18.2614H113.849L119.435 8.86014H122.227L114.95 20.7002V29H112.512V20.7002L105.234 8.86014Z" fill="black"/>
<path d="M19 16.3195C21.131 16.3195 22.9201 17.7635 23.4255 19.7159C24.0608 22.1639 23.975 24.8467 26.768 26.2398C29.2471 27.0834 30.1849 28.1436 30.1849 30.986C30.1849 33.2546 28.2439 35.666 25.7412 35.967C22.9429 36.3873 20.7647 35.8378 18.9992 34.8316C17.2338 35.8378 15.0548 36.388 12.2603 35.967C9.75611 35.666 7.81583 33.2462 7.81583 30.986C7.81583 28.2044 8.81675 27.0271 11.2913 26.2208C14.3366 24.665 13.9278 21.9382 14.6072 19.5958C14.8865 18.6481 15.4656 17.8164 16.2577 17.2257C17.0497 16.635 18.0119 16.317 19 16.3195ZM32.9513 14.6292C32.1966 13.9734 29.1164 16.5338 28.1474 17.8C27.5584 18.4756 27.192 19.4043 27.192 20.4288C27.192 22.4892 28.6664 24.1596 30.4806 24.1596C31.8607 24.1596 33.0418 23.1998 33.5304 21.8348C34.4797 19.38 34.5321 16.0018 32.9513 14.6292ZM5.04715 14.6292C3.46863 16.0018 3.51955 19.38 4.47031 21.8348C4.95899 23.1998 6.13927 24.1596 7.51867 24.1596C9.33431 24.1596 10.8072 22.4892 10.8072 20.4288C10.8072 19.4043 10.4416 18.4756 9.85263 17.8C8.88287 16.5338 5.80335 13.9734 5.04715 14.6292ZM23.0546 1.17191C30.7215 2.47303 30.1834 15.3854 24.0449 14.345C22.2741 14.044 20.9593 12.4313 20.7594 10.5047C20.5565 8.54543 20.0997 0.67183 23.0546 1.17191ZM14.9454 1.17191C17.901 0.67107 17.4435 8.54467 17.2406 10.504C17.0407 12.4313 15.7274 14.0433 13.9566 14.3442C7.81659 15.3862 7.27927 2.47303 14.9454 1.17191Z" fill="black"/>
</svg>
